Coordinates
version=1
nRows=17
nColumns=24
inDegrees=yes

Units are S.I. units (second, meters, Newtons, ...)
Angles are in degrees.

endheader
time	pelvis_tilt	pelvis_list	pelvis_rotation	pelvis_tx	pelvis_ty	pelvis_tz	hip_flexion_r	hip_adduction_r	hip_rotation_r	knee_angle_r	ankle_angle_r	subtalar_angle_r	mtp_angle_r	hip_flexion_l	hip_adduction_l	hip_rotation_l	knee_angle_l	ankle_angle_l	subtalar_angle_l	mtp_angle_l	lumbar_extension	lumbar_bending	lumbar_rotation
      0.57500000	      0.19436142	      5.78801440	     -2.20457548	     -0.82275376	      1.05431665	      0.34142423	     22.47030621	     -1.55852578	     -7.48463590	      0.00532963	      1.20083480	     -0.75785356	      0.12349076	    -15.17604153	     11.85863689	      2.02661425	     -2.59997948	      5.83185996	     -2.46215849	      0.18377347	      3.43841145	     -3.76921738	     -1.58834036
      0.57916667	      0.18176327	      5.80236696	     -2.21296433	     -0.81711316	      1.05389947	      0.34145445	     22.38653566	     -1.47987699	     -7.47563676	     -0.14034627	      1.22386882	     -0.75912028	      0.13337766	    -15.32456357	     11.87845814	      2.02793927	     -2.92548198	      5.81712879	     -2.49424231	      0.18723937	      3.50047552	     -3.75571093	     -1.61333490
      0.58333333	      0.16339475	      5.80673136	     -2.21206260	     -0.81138374	      1.05351309	      0.34146286	     22.30138183	     -1.39925027	     -7.45193667	     -0.33558378	      1.24900325	     -0.76955371	      0.14214941	    -15.45519628	     11.88517042	      2.02829304	     -3.27927047	      5.79209248	     -2.51032247	      0.19112149	      3.55559728	     -3.73554005	     -1.63143423
      0.58750000	      0.19682902	      5.78206239	     -2.23999255	     -0.80556739	      1.05321603	      0.34149677	     22.15811119	     -1.28439795	     -7.40412654	     -0.58384466	      1.38905992	     -0.85362004	      0.18702357	    -15.63014143	     11.86760597	      1.92183610	     -3.65078354	      5.72421450	     -2.47982590	      0.21647559	      3.55979529	     -3.70274413	     -1.71297403
      0.59166667	      0.18170546	      5.78900637	     -2.21831565	     -0.79980686	      1.05288010	      0.34140130	     22.06755730	     -1.23105281	     -7.30751574	     -0.85772910	      1.35997859	     -0.85721008	      0.19590277	    -15.73256267	     11.87310908	      1.95194336	     -4.07712418	      5.68770765	     -2.46448950	      0.22265795	      3.61435582	     -3.66211488	     -1.72301895
      0.59583333	      0.18570775	      5.79997549	     -2.26376806	     -0.79405167	      1.05255730	      0.34148975	     21.95887490	     -1.15267868	     -7.01922122	     -1.15009073	      1.25466856	     -1.05043387	      0.26198240	    -15.81892712	     11.89082477	      1.76237176	     -4.54176063	      5.55187009	     -2.26311823	      0.27702994	      3.57050448	     -3.63922332	     -1.78597535
      0.60000000	      0.18487504	      5.79012284	     -2.23110095	     -0.78818674	      1.05230998	      0.34133466	     21.84056388	     -1.10041525	     -6.90727823	     -1.46715724	      1.20671134	     -1.06970377	      0.27100370	    -15.91016119	     11.87408870	      1.78896726	     -5.02706462	      5.52306926	     -2.24797354	      0.28549832	      3.66565731	     -3.59591561	     -1.78575156
      0.60416667	      0.15919984	      5.77877191	     -2.27009825	     -0.78230404	      1.05201993	      0.34145360	     21.73060767	     -1.00527448	     -6.48796486	     -1.73958500	      0.83844149	     -1.36754391	      0.34067467	    -15.92737670	     11.85521548	      1.51015210	     -5.56696863	      5.37256765	     -1.94754621	      0.36158829	      3.67075730	     -3.52640662	     -1.81232827
      0.60833333	      0.17940251	      5.76481002	     -2.24049439	     -0.77642744	      1.05185778	      0.34125679	     21.58858055	     -0.96395696	     -6.36067046	     -2.08933915	      0.77915216	     -1.40099993	      0.35060132	    -15.99934401	     11.83203690	      1.52433362	     -6.12631038	      5.33219738	     -1.92124018	      0.37304675	      3.77534777	     -3.47796861	     -1.80871075
      0.61250000	      0.11835605	      5.73226684	     -2.26231877	     -0.77043423	      1.05160232	      0.34138413	     21.49445317	     -0.85734426	     -5.91449103	     -2.34702675	      0.28141256	     -1.70329238	      0.41121140	    -15.93265815	     11.77411527	      1.16228612	     -6.76483231	      5.11569928	     -1.55837939	      0.45476102	      3.75643574	     -3.39440116	     -1.82359957
      0.61666667	      0.16716965	      5.72172377	     -2.24508419	     -0.76456681	      1.05154209	      0.34115866	     21.32125103	     -0.83359881	     -5.76120445	     -2.70003396	      0.18228540	     -1.75441392	      0.42318386	    -15.98857921	     11.75410597	      1.15347125	     -7.39991504	      5.05714593	     -1.50312965	      0.47182227	      3.88730237	     -3.33458506	     -1.81889622
      0.62083333	      0.15931442	      5.67231115	     -2.41270405	     -0.75853707	      1.05135757	      0.34159312	     21.18024534	     -0.66081759	     -5.12372290	     -2.95629385	     -0.70142215	     -2.43447477	      0.52797954	    -15.93209665	     11.69529123	      0.53804220	     -8.07497099	      4.76952023	     -0.70437595	      0.64617703	      4.00567129	     -3.26602198	     -1.80872685
      0.62500000	      0.14167191	      5.61002155	     -2.40288029	     -0.75252722	      1.05129917	      0.34181952	     21.00498253	     -0.54063054	     -4.60737654	     -3.17325422	     -1.23584462	     -3.18198370	      0.67473379	    -15.83225824	     11.56358054	      0.09805103	     -8.87897059	      4.72207735	     -0.02447008	      0.89550071	      3.97718130	     -3.12797593	     -1.76829846
      0.62916667	      0.17555174	      5.56247201	     -2.32252168	     -0.74655011	      1.05138507	      0.34154916	     20.80686687	     -0.51517558	     -4.43744569	     -3.48184189	     -1.34296084	     -3.16220560	      0.68817370	    -15.79657779	     11.46594227	      0.04937749	     -9.67375006	      4.62906753	     -0.00924777	      0.91632234	      4.06238953	     -3.06174043	     -1.76335132
      0.63333333	      0.17480568	      5.43874342	     -2.39192870	     -0.74028340	      1.05141490	      0.34194638	     20.58565070	     -0.31111560	     -3.82344054	     -3.63901200	     -2.26059652	     -3.75946601	      0.85098972	    -15.68926325	     11.26805614	     -0.56304955	    -10.50245126	      4.24046276	      0.86127641	      1.23048264	      4.19508642	     -2.98999952	     -1.73591256
      0.63750000	      0.13915969	      5.38154319	     -2.34535582	     -0.73426788	      1.05144472	      0.34183102	     20.48808798	     -0.25724324	     -3.71323077	     -3.99383979	     -2.51924698	     -3.83957117	      0.88802389	    -15.49720749	     11.14336439	     -0.87839467	    -11.43057611	      4.03146091	      0.99716368	      1.30351200	      4.07932106	     -2.81120301	     -1.76321870
      0.64166667	      0.19480020	      5.26445721	     -2.40817217	     -0.72806319	      1.05162151	      0.34219222	     20.22063627	     -0.08290411	     -3.11751981	     -4.18228466	     -3.36866803	     -4.50702488	      1.06421908	    -15.39818391	     10.93645978	     -1.42125158	    -12.34328807	      3.60535801	      1.95310008	      1.69362526	      4.26769372	     -2.71767051	     -1.73667871
